<?xml version="1.0" encoding="utf-8"?>
<!-- Generator: Adobe Illustrator 19.2.0, SVG Export Plug-In . SVG Version: 6.00 Build 0)  -->
<svg version="1.1" id="Слой_1" xmlns="http://www.w3.org/2000/svg" xmlns:xlink="http://www.w3.org/1999/xlink" x="0px" y="0px"
	 viewBox="0 0 1000 1000" style="enable-background:new 0 0 1000 1000;" xml:space="preserve">
<style type="text/css">
	.st0{fill:url(#SVGID_1_);}
	.st1{opacity:0.5;fill:#FFFFFF;enable-background:new    ;}
	.st2{opacity:0.6;fill:#FFFFFF;enable-background:new    ;}
	.st3{opacity:0.7;fill:#FFFFFF;enable-background:new    ;}
	.st4{fill:#99FF99;}
	.st5{font-family:'ProximaNova-Bold';}
	.st6{font-size:133.26px;}
	.st7{fill:#808080;}
	.st8{fill:#666666;}
	.st9{fill:#AF7647;}
	.st10{fill:#291A0F;}
	.st11{fill:#E6B567;}
	.st12{fill:#582F11;}
	.st13{fill:#FFFFFF;}
	.st14{fill:#391D0C;}
</style>
<title>Курс_Толстой_2</title>
<linearGradient id="SVGID_1_" gradientUnits="userSpaceOnUse" x1="500" y1="992.4904" x2="500" y2="-7.5097">
	<stop  offset="0" style="stop-color:#47ADB7"/>
	<stop  offset="1" style="stop-color:#4BE7AA"/>
</linearGradient>
<rect class="st0" width="1000" height="1000"/>
<circle class="st1" cx="281.3" cy="259.5" r="447.3"/>
<circle class="st2" cx="281.3" cy="259.5" r="313.1"/>
<circle class="st3" cx="281.3" cy="257.7" r="197.3"/>
<text transform="matrix(1 0 0 1 159.73 288.18)" class="st4 st5 st6">ЕГЭ</text>
<path class="st7" d="M384,697.7c-5-1.2-19-30.9-31.7-36.3c-11.5-4.9-29,0.1-32.5-3c-5.8-5.1,45-51.9,33.1-89.1
	c-5-15.7-17-16.2-24.2-30.9c-19-38.9,11-103.3,35.3-103.9c15.3-0.4,27.5,24.5,32.6,35.2C441.3,561.5,394.6,700.1,384,697.7z"/>
<path class="st8" d="M396.4,488.7c0,0-0.7,0.9-2,2.5c-0.6,0.8-1.5,1.7-2.5,2.7c-1.1,1.1-2.3,2.2-3.6,3.2c-1.5,1.2-3.1,2.3-4.7,3.3
	c-3.8,2.4-8,4.2-12.4,5.4l-3.5,0.7l-0.8,0.2c-0.3,0-0.6,0.1-0.9,0.1l-1.9,0.2c-0.6,0.1-1.3,0.2-1.9,0.2s-1.2,0-1.9,0.1l-1.9,0.1
	h-1.9h-1.9c-0.6,0-1.2-0.1-1.8-0.2c-1.2-0.1-2.4-0.3-3.5-0.6c-1.1-0.3-2.2-0.6-3.3-1.1c-1-0.4-2-0.9-3-1.4c-1.8-0.9-3.4-2-5-3.3
	c-2.4-1.8-4.4-4-6.1-6.5c-0.7-0.9-1.2-1.9-1.7-3l0.7-0.8l0.9,0.2c0.3,0.1,0.6,0.2,1,0.3s0.9,0.2,1.3,0.4l7.8,2.3
	c0.8,0.2,1.6,0.5,2.4,0.7s1.7,0.4,2.5,0.7s1.7,0.4,2.6,0.7s1.8,0.5,2.7,0.7s1.8,0.5,2.8,0.8l1.4,0.4l1.5,0.4l1.5,0.4l1.5,0.3
	c1,0.2,2,0.3,3,0.3l1.5,0.1c0.3,0,0.5,0,0.8,0h0.9l3.2-0.3c2-0.2,4-0.5,6-1c1-0.2,1.9-0.5,2.9-0.8s1.8-0.6,2.7-0.9
	c1.6-0.6,3.3-1.3,4.8-2.1c1.5-0.8,2.8-1.5,3.9-2.2s2.1-1.4,2.9-2c1.6-1.1,2.5-1.9,2.5-1.9L396.4,488.7z"/>
<path class="st8" d="M408.3,556.8l-1.1,0.5c-0.7,0.4-1.8,0.9-3.1,1.6s-2.9,1.7-4.6,2.8c-1.9,1.3-3.8,2.7-5.5,4.2
	c-2.1,1.7-4.1,3.6-5.9,5.6c-2,2.2-3.9,4.5-5.6,7c-1.9,2.6-3.6,5.3-5.2,8.2c-1.5,2.8-2.7,5.7-3.5,8.8c-0.4,1.5-0.6,3-0.8,4.5
	l-0.1,1.1v0.6h0.1c0,0,0.1,0.2,0.1-0.1v0.1l-0.1,0.2v0.3v1.3c0,0.5,0,0.7,0.1,1.1c0,0.7,0.1,1.4,0.2,2.1s0.2,1.4,0.4,2.1
	c0.3,1.4,0.6,2.9,1,4.5c0.4,1.7,0.7,3.4,0.9,5.2c0.2,1.9,0.1,3.8-0.2,5.7c-0.3,1.7-0.8,3.5-1.5,5.1l-0.2,0.5l-0.3,0.6l-0.6,1.2
	c-0.4,0.7-0.8,1.4-1.3,2c-1.5,2.2-3.4,4.2-5.6,5.8c-1.6,1.2-3.3,2.2-5.1,3c-1.1,0.5-2.3,1-3.5,1.3c-0.8,0.3-1.3,0.4-1.3,0.4
	l-0.5-0.8l0.8-1c0.5-0.6,1.3-1.5,2.3-2.7c1.1-1.4,2.1-2.8,3-4.2c1.1-1.8,2.1-3.6,2.8-5.6c0.2-0.5,0.3-1.1,0.5-1.6l0.2-0.7
	c0-0.1,0.1-0.2,0.1-0.4l0.1-0.5c0.2-1.1,0.4-2.2,0.4-3.4c0-1.2-0.1-2.3-0.3-3.5c-0.2-1.2-0.5-2.7-0.9-4.2c-0.4-1.7-0.6-3.5-0.8-5.3
	c-0.1-0.9-0.1-1.9-0.1-2.9s0-1.9,0.1-3c0-0.5,0.1-1.1,0.1-1.5l0.2-1.3l0.1-0.8l0.1-0.7l0.3-1.4c0.4-1.9,1-3.7,1.7-5.5
	c1.3-3.5,3-6.9,5.2-10c2-2.9,4.2-5.6,6.5-8.1c7-7.9,15.8-13.9,25.6-17.5c1.5-0.5,2.6-0.9,3.4-1.2l1.2-0.4L408.3,556.8z"/>
<path class="st7" d="M792.6,738.6c10.2-6,19.8-13,28.5-21c20-18.3,18-25.7,36-43.5c23.5-23.2,37.4-20.9,43.5-39
	c3.9-11.6,0.4-18.9,7.5-27c8.6-9.8,19-5.2,27-12c14.3-12.3,7.3-50-7.5-76.5c-12.7-22.9-30.9-36.8-63-61.5
	c-15.3-11.7-21.3-14.8-34.5-27c-10.1-9.4-24.9-23.1-36-42c-21-35.7-5.7-50.2-22.5-67.5c-18.7-19.3-40.4-3.9-82.5-25.5
	c-21.6-11.1-17.3-15.8-37.5-27c-3.3-1.8-62.8-33.6-120-9c-14.3,6.2-29.1,19.6-58.5,46.5c-16.5,15.1-23.4,23.5-28.5,34.5
	c-4.6,9.9-4.3,14.5-9,19.5c-11,11.7-27.9-3-51,4.5c-2.5,0.8-18.9,6.4-28.5,22.5c-8.1,13.5-11.9,35.2,0,52.5
	c11.1,16.1,29.3,19,33,19.5"/>
<path class="st8" d="M381.8,536.9c0,0-0.2,0-0.6,0s-1.1-0.1-1.9-0.2c-1.6-0.2-3.8-0.7-6.3-1c-2.7-0.4-5.4-0.3-8,0.4
	c-1.3,0.4-2.6,1-3.8,1.8c-1.3,0.8-2.5,1.7-3.6,2.7c-1.2,1.1-2.3,2.3-3.6,3.6c-0.7,0.8-1.5,1.4-2.4,2.1c-1.2,0.9-2.5,1.5-3.9,1.8
	c-0.9,0.2-1.8,0.2-2.8,0.1c-0.5-0.1-0.9-0.2-1.4-0.3l-0.6-0.2l-0.2-0.1l0,0h-0.1l-0.1-0.1l-0.9-0.4c-0.3-0.2-0.6-0.4-0.9-0.6
	c-0.5-0.4-1-0.8-1.4-1.2c-1.4-1.4-2.4-3.2-3-5.1c-0.4-1.4-0.7-2.8-0.7-4.3c0-1.1,0-2.1,0.2-3.2c0.1-0.7,0.3-1.3,0.5-2
	c0.1-0.5,0.2-0.7,0.2-0.7l1-0.2c0,0,0.2,0.2,0.5,0.5s0.8,0.8,1.3,1.4l1.9,2.1c0.7,0.8,1.4,1.6,2.2,2.3c0.6,0.6,1.4,1.1,2.2,1.5
	c0.1,0,0.2,0.1,0.2,0.1c0.1,0,0.1,0,0.2,0.1c0.1,0,0.1,0,0.1,0l0,0l0.2,0.1h0.1h0.1l0,0l-0.2-0.1l0,0h-0.1c-0.2-0.1-0.4-0.1-0.5,0
	c-0.1,0.1,0.2,0,0.7-0.1c0.6-0.2,1.2-0.5,1.8-0.8c1.4-0.7,3-1.7,4.6-2.7c1.7-1,3.5-1.9,5.3-2.6c1.9-0.7,3.8-1.1,5.8-1.2
	c1.8-0.1,3.6,0,5.4,0.5c1.5,0.3,3,0.8,4.4,1.4c1.3,0.5,2.4,1.1,3.4,1.6l2.5,1.2c0.7,0.3,1.2,0.5,1.6,0.7s0.6,0.2,0.6,0.2
	L381.8,536.9z"/>
<path class="st8" d="M398.6,467c0,0-0.9,0.3-2.6,0.6c-0.9,0.2-1.9,0.4-3.1,0.5s-2.5,0.4-4,0.4s-3.1,0.2-4.9,0.2s-3.6-0.1-5.4-0.3
	c-2-0.2-3.9-0.5-5.8-0.9c-2-0.4-3.9-0.9-6-1.5c-0.9-0.3-1.8-0.5-2.9-0.9s-2-0.6-3-1c-1.9-0.6-3.8-1.5-5.5-2.5
	c-1.6-1-3.1-2.1-4.5-3.4c-1.2-1.2-2.4-2.4-3.4-3.8c-1.6-2-2.8-4.3-3.8-6.6c-0.3-0.7-0.5-1.4-0.7-2.1c-0.1-0.5-0.2-0.8-0.2-0.8
	l0.8-0.6c0,0,0.3,0.1,0.7,0.3s1.1,0.5,2,0.8c1.6,0.7,3.9,1.7,6.4,3l1.9,1c0.6,0.4,1.3,0.7,2,1.1c1.4,0.7,2.8,1.5,4.2,2.4
	c0.7,0.4,1.4,0.9,2.1,1.4s1.4,1,2.1,1.5l1.1,0.8l1.1,0.7c0.8,0.5,1.6,1,2.5,1.4c1.5,0.8,3.3,1.5,4.9,2.2s3.4,1.3,5,1.8
	s3.3,1,4.8,1.4s3.1,0.7,4.5,0.9c2.8,0.5,5.2,0.7,6.8,0.9s2.6,0.2,2.6,0.2L398.6,467z"/>
<path class="st8" d="M393.4,456.8c0,0-0.8,0.2-2.3,0.4c-2,0.3-4.1,0.4-6.2,0.4c-1.3,0-2.7-0.1-4.2-0.3c-1.6-0.2-3.1-0.4-4.7-0.8
	c-0.8-0.2-1.6-0.4-2.5-0.6s-1.6-0.5-2.5-0.8s-1.6-0.6-2.5-1l-2.4-1.2c-0.8-0.4-1.6-0.9-2.4-1.3s-1.6-0.9-2.4-1.4l-0.6-0.4l-0.1-0.1
	h-0.1l-0.1-0.1l0,0l0,0l-0.3-0.2c-0.3-0.2-0.7-0.5-1-0.7c-0.7-0.6-1.4-1.2-2-1.8c-1.2-1.2-2.2-2.5-3-4c-0.7-1.3-1.3-2.7-1.8-4.1
	c-0.4-1.2-0.7-2.4-0.9-3.7c-0.1-1-0.2-2-0.1-3c0-0.6,0.1-1.3,0.2-1.9c0.1-0.5,0.1-0.7,0.1-0.7l0.9-0.4c0,0,0.2,0.1,0.6,0.4
	s0.9,0.6,1.5,1.1s1.3,1,2.1,1.7s1.6,1.4,2.5,2.1s1.8,1.6,2.7,2.5s1.9,1.8,2.8,2.7c0.5,0.5,0.8,0.9,1.3,1.5c0.3,0.3,0.5,0.6,0.8,0.9
	l0.2,0.2l0,0l0,0l-0.1,0v0l0.1,0.1l0.4,0.4c0.5,0.5,0.9,1.1,1.5,1.6s1.1,1,1.6,1.5l1.8,1.4l1.9,1.3c1.3,0.8,2.5,1.5,3.8,2.2
	s2.6,1.2,3.8,1.7s2.5,0.9,3.6,1.3s2.2,0.7,3.2,0.9s1.8,0.4,2.5,0.5c1.4,0.3,2.2,0.4,2.2,0.4L393.4,456.8z"/>
<path class="st8" d="M452.4,330.9c-1.1,2.2-5.6-0.5-2.6,11.1c3.1,12,12.1,13,14.1,14.3"/>
<path class="st8" d="M452.9,331.1v0.1v0.1c0,0.1-0.1,0.1-0.1,0.2c-0.2,0.4-0.6,0.8-0.9,1.1c-0.4,0.3-0.7,0.6-0.9,1
	c0,0.4,0.1,0.7,0.2,1.1c0.2,0.7,0.4,1.3,0.7,1.9c0.3,0.7,0.7,1.5,1.1,2.4l0.6,1.3l0.2,0.3l0.1,0.2l0,0l0,0c0,0,0,0,0-0.1l0,0v0.1
	l0.3,0.7c0.2,0.4,0.4,0.8,0.7,1.1c0.2,0.3,0.5,0.7,0.8,1c0.5,0.7,1.1,1.2,1.6,1.8c0.5,0.5,0.9,1.1,1.3,1.7c0.4,0.6,0.8,1.2,1.2,1.8
	s0.8,1.2,1.3,1.8l2.5,3.2c0.3,0.4,0.5,0.8,0.8,1.2c0.2,0.3,0.3,0.5,0.3,0.5l-0.5,0.9l-0.4,0.1c-0.3,0.1-0.7,0.2-1.2,0.4
	c-0.7,0.2-1.3,0.3-2,0.3c-0.9,0.1-1.8,0-2.6-0.1c-1.1-0.2-2.1-0.5-3.1-0.9c-1.2-0.5-2.2-1.1-3.2-1.9c-1-0.8-1.9-1.9-2.6-3
	c-0.7-1.2-1.2-2.4-1.5-3.7c-0.2-0.6-0.3-1.3-0.4-1.9s-0.3-1.4-0.4-1.9l-0.1-0.8V343l0,0c0,0,0-0.2,0-0.1l0,0l0,0v-0.2v-0.4
	c0-0.5-0.1-1.1-0.1-1.7c0-1.1,0-2.2,0.1-3.3c0.1-1.1,0.4-2.2,0.7-3.2c0.4-1.1,1.1-2.1,2.1-2.7c0.6-0.3,1.3-0.5,2-0.5
	c0.3,0,0.5,0,0.8-0.1h0.1l0.1-0.1l0.1-0.1L452.9,331.1z"/>
<path class="st8" d="M456.5,340.9c3,12.8,6,8.7,9,21.5"/>
<path class="st8" d="M457,340.8c0,0,0.2,0.3,0.6,0.9c0.2,0.3,0.4,0.6,0.7,1l0.9,1.2c0.3,0.5,0.7,0.9,1.1,1.4s0.8,0.9,1.2,1.4
	s0.9,0.9,1.3,1.3l1.5,1.4c0.3,0.3,0.6,0.5,0.9,0.8s0.7,0.6,1,0.9s0.7,0.6,1,1c0.3,0.3,0.5,0.7,0.7,1.1c0.4,0.7,0.6,1.5,0.6,2.3
	c0,0.7,0,1.5-0.1,2.2c-0.1,0.6-0.3,1.3-0.6,1.9l-0.4,0.8L467,361c-0.2,0.3-0.4,0.7-0.7,1l-0.3,0.3l-1,0.2l-0.4-0.2
	c-0.4-0.1-0.7-0.3-1.1-0.5l-0.7-0.4l-0.7-0.4c-0.5-0.3-1-0.6-1.4-1c-0.5-0.4-0.9-0.8-1.3-1.2c-0.4-0.4-0.7-0.8-0.9-1.3
	c-0.2-0.5-0.3-1.1-0.3-1.6c0-0.3-0.1-0.7-0.2-1c-0.1-0.3-0.2-0.7-0.3-1l-0.5-1.1c-0.2-0.4-0.3-0.8-0.5-1.2c-0.3-0.8-0.5-1.6-0.7-2.4
	c-0.1-0.7-0.2-1.5-0.3-2.3c0-0.7-0.1-1.4-0.1-2c0-1,0-1.9,0.2-2.9c0.1-0.7,0.1-1.1,0.1-1.1L457,340.8z"/>
<path class="st8" d="M475.8,333.2c0.9,11.5,1.7,6.1,2.6,17.6"/>
<path class="st8" d="M476.3,333.2c0,0,0.2,0.3,0.5,0.7c0.1,0.2,0.3,0.5,0.5,0.8l0.6,1.1c0.2,0.4,0.4,0.8,0.7,1.2s0.5,0.9,0.8,1.3
	s0.5,0.9,0.8,1.3l0.8,1.3c0.6,1,1.8,2.3,2,3.5c0.1,0.6,0.1,1.2-0.1,1.7c-0.2,0.5-0.4,1-0.7,1.5c-0.3,0.5-0.6,0.9-1,1.3l-0.5,0.5
	l-0.5,0.5c-0.3,0.2-0.6,0.4-0.9,0.6l-0.4,0.2l-1,0.1l-0.4-0.2c-0.3-0.1-0.7-0.3-1-0.5l-0.6-0.4l-0.6-0.4c-0.4-0.3-0.8-0.6-1.2-1
	c-0.4-0.4-0.7-0.7-1-1.2c-0.3-0.4-0.5-0.8-0.5-1.3c0-0.2,0-0.5,0.1-0.7c0-0.2,0.1-0.5,0.2-0.7c0.2-0.5,0.3-1,0.3-1.5
	c0-0.6,0-1.3,0-2c0-0.6,0.1-1.3,0.2-1.9c0.2-1.1,0.5-2.1,0.8-3.1c0.3-0.9,0.5-1.6,0.7-2.1s0.3-0.8,0.3-0.8L476.3,333.2z"/>
<path class="st8" d="M489.9,317.8c3,14.5,6,12.1,9,26.6"/>
<path class="st8" d="M490.4,317.7c0,0,0.2,0.4,0.6,1.1c0.2,0.4,0.4,0.8,0.7,1.3s0.6,1,0.9,1.6s0.7,1.2,1.1,1.8s0.8,1.3,1.3,1.9
	s0.9,1.3,1.4,2l1.5,2c0.3,0.4,0.5,0.7,0.9,1.1l1,1.1c0.3,0.4,0.6,0.8,0.9,1.2c0.3,0.4,0.5,0.8,0.7,1.3c0.3,0.8,0.5,1.7,0.5,2.6
	c0,0.8,0,1.6-0.2,2.5c-0.1,0.7-0.3,1.4-0.6,2.1c-0.2,0.6-0.5,1.1-0.8,1.6c-0.2,0.4-0.4,0.7-0.7,1.1l-0.3,0.4l-1,0.2l-0.4-0.2
	c-0.4-0.2-0.7-0.4-1.1-0.7c-0.5-0.3-1-0.7-1.4-1.1c-0.5-0.4-1-0.9-1.5-1.4c-0.5-0.5-0.9-1.1-1.4-1.6c-0.4-0.6-0.8-1.2-1-1.9
	c-0.2-0.7-0.3-1.5-0.4-2.3c-0.1-0.9-0.2-1.7-0.5-2.5c-0.3-0.9-0.5-1.8-0.8-2.7s-0.4-1.9-0.5-2.8s-0.2-1.8-0.3-2.6s-0.1-1.6-0.1-2.3
	c0-1.1,0-2.3,0.1-3.4c0.1-0.8,0.1-1.3,0.1-1.3L490.4,317.7z"/>
<path class="st8" d="M514.3,303.7c2.6,18,5.1,18.9,7.7,36.9"/>
<path class="st8" d="M514.8,303.6l0.6,1.5l1.6,4l1.1,2.6c0.4,0.9,0.8,1.9,1.2,2.9l2.7,6.3c0.5,1.1,1,2.2,1.6,3.3
	c0.6,1,1,2.2,1.3,3.3c0.3,1.1,0.4,2.2,0.4,3.3c0,1.9-0.3,3.8-0.9,5.7c-0.2,0.7-0.5,1.4-0.8,2c-0.2,0.5-0.5,0.9-0.7,1.3
	c-0.2,0.3-0.3,0.5-0.3,0.5l-1,0.1c0,0-0.2-0.1-0.4-0.4c-0.4-0.3-0.7-0.6-1.1-1c-1.1-1.2-2.1-2.4-2.9-3.8c-0.5-0.8-1-1.7-1.3-2.5
	c-0.4-0.9-0.8-1.9-1-2.9c-0.2-1.1-0.3-2.2-0.3-3.3c0-1.2-0.1-2.4-0.2-3.5l-0.4-3.6c-0.2-1.2-0.2-2.4-0.3-3.5
	c-0.2-2.3-0.1-4.4-0.1-6.3s0.1-3.4,0.2-4.4l0.1-1.7L514.8,303.6z"/>
<path class="st8" d="M555.3,270c-2.3,9.8-4.5,37-6.4,47.8c-3,16.7-5,15.6-6.4,30.5"/>
<path class="st8" d="M555.8,270.1l-0.1,0.9c-0.1,0.6-0.1,1.4-0.2,2.5l-0.2,3.9l-0.2,5.1l-0.4,12.7c-0.1,2.3-0.1,4.8-0.3,7.2
	l-0.4,7.5l-0.4,7.6l-0.1,1l-0.1,1c0,0.6-0.1,1.2-0.2,1.8c-0.1,1.2-0.3,2.5-0.6,3.7c-0.5,2.3-1.1,4.5-2,6.7c-0.8,2.1-1.7,3.9-2.4,5.5
	l-2,4.5l-1.7,3.6c-0.5,1-0.9,1.8-1.2,2.4s-0.5,0.9-0.5,0.9l-1-0.1c0,0-0.1-0.3-0.3-0.9s-0.4-1.5-0.6-2.6c-0.3-1.4-0.5-2.8-0.5-4.1
	c-0.1-1.8-0.1-3.7,0.1-5.5c0.2-2,0.5-4.1,0.8-6.1s0.7-4.1,1.2-6.3c0.3-1.1,0.5-2.1,0.8-3.3c0.2-0.6,0.3-1.2,0.5-1.8l0.3-0.8l0.2-0.8
	c0.6-2.2,1.2-4.6,1.7-7.1l1.4-7.3c0.4-2.4,0.9-4.8,1.4-7.1s0.9-4.5,1.3-6.6l1.3-5.9c0.8-3.7,1.6-6.7,2.3-8.8
	c0.3-1.1,0.6-1.9,0.8-2.4l0.3-0.9L555.8,270.1z"/>
<path class="st8" d="M554,341.7c0.8-19.6,11.2-24.5,26.9-31.6c11.2-5,21.9-3.6,26.9-2.6"/>
<path class="st8" d="M553.5,341.7c0,0-0.2-0.3-0.4-0.9c-0.4-0.8-0.7-1.6-1-2.4c-0.4-1.3-0.6-2.6-0.7-4c-0.1-1.8,0.1-3.5,0.5-5.2
	c0.1-0.5,0.2-1,0.4-1.5s0.4-1,0.6-1.5c0.2-0.5,0.4-1,0.7-1.5c0.3-0.5,0.6-1,1-1.4c0.7-0.9,1.6-1.8,2.6-2.5c0.5-0.4,1-0.7,1.6-1
	c0.5-0.3,1.1-0.6,1.6-0.9c1.1-0.5,2.2-1.1,3.2-1.6c0.5-0.3,1-0.6,1.5-0.9c0.5-0.3,1-0.6,1.5-0.9c2-1.3,3.8-2.8,5.5-4.5
	c1.7-1.7,3.5-3.2,5.5-4.5l1.4-0.9l1.6-0.9l0.7-0.4l0.9-0.4c0.6-0.3,1.2-0.6,1.7-0.8c2.1-0.9,4.4-1.4,6.7-1.6c2-0.1,4.1-0.1,6.1,0.2
	c3,0.4,5.9,1.4,8.6,2.9c0.8,0.4,1.5,0.9,2.2,1.4c0.5,0.4,0.7,0.6,0.7,0.6l-0.2,1c0,0-0.3,0.1-0.9,0.3s-1.4,0.4-2.4,0.7
	c-2,0.6-4.7,1.2-7.7,2l-4.8,1.2c-1.7,0.5-3.4,0.8-5.2,1.2l-1.3,0.3l-0.7,0.1l-0.8,0.2l-0.8,0.2l-0.4,0.1l-0.2,0.1h0.1l0,0l0,0h-0.1
	l-1.6,0.5c-2.2,0.6-4.4,1-6.7,1.3c-1.1,0.2-2.2,0.4-3.3,0.8c-1,0.3-2.1,0.8-3,1.4c-1.8,1.1-3.3,2.7-4.1,4.6
	c-0.8,1.9-1.3,3.7-1.9,5.1c-0.1,0.3-0.3,0.7-0.5,1c-0.2,0.3-0.3,0.7-0.5,1s-0.4,0.6-0.5,1l-0.5,1c-0.7,1.3-1.3,2.5-1.9,3.7
	s-1.2,2.1-1.7,3.1c-0.4,0.8-0.8,1.5-1.3,2.2c-0.3,0.5-0.6,0.8-0.6,0.8L553.5,341.7z"/>
<path class="st8" d="M574.2,338.8c0,0,0.2-0.4,0.5-1.1c0.2-0.5,0.4-0.9,0.7-1.3c0.4-0.6,0.8-1.1,1.3-1.6c0.5-0.5,1.1-1.2,1.7-1.8
	s1.4-1.2,2.2-1.8s1.7-1.2,2.7-1.8s2-1.1,3.1-1.7c2.3-1.1,4.8-2,7.3-2.6c1.4-0.3,2.8-0.4,4.2-0.5c1.5,0,3,0,4.5,0
	c1.5,0.1,3,0.1,4.5,0c1.5-0.1,3-0.3,4.5-0.6c3.1-0.6,6.1-1.4,9-2.5l2.3-0.8l2.3-0.7c1.5-0.5,3-0.8,4.6-1.1c3.1-0.5,6.1-1,9.2-1.3
	c3-0.2,5.9-0.1,8.9,0.3c2.6,0.4,5.2,1,7.7,1.8c3.8,1.2,7.4,2.9,10.7,5.1c0.9,0.6,1.8,1.3,2.7,2c0.6,0.5,0.9,0.8,0.9,0.8l-0.3,0.9
	c0,0-0.4,0-1.2,0.1s-1.9,0-3.3,0c-2.8,0-6.6-0.1-11-0.1l-7.1-0.1c-2.5-0.1-5.1-0.2-7.8-0.4c-1.2-0.1-2.9-0.1-4.2-0.2l-4.4-0.1
	c-1.5-0.1-3-0.1-4.5-0.3s-3.1-0.4-4.6-0.5c-3-0.4-6.1-0.4-9.2,0.1c-1.5,0.2-2.9,0.6-4.3,1.1c-1.4,0.5-2.7,1.1-4,1.8
	c-1.3,0.7-2.5,1.4-3.8,2c-1.2,0.6-2.4,1.2-3.6,1.7c-1.1,0.5-2.3,0.9-3.5,1.2c-1.1,0.4-2.2,0.7-3.3,0.9c-1.1,0.3-2.1,0.6-3.1,0.8
	s-1.9,0.5-2.8,0.7s-1.7,0.4-2.5,0.6s-1.4,0.4-2.1,0.5l-1.7,0.4c-0.3,0.1-0.5,0.1-0.7,0.2l-0.6,0.2c-0.8,0.3-1.2,0.4-1.2,0.4
	L574.2,338.8z"/>
<path class="st8" d="M444.8,371.6c-7.3,7.2-16.8,11.7-26.9,12.8c-19.2,1.9-32.5-9.6-34.6-11.5"/>
<path class="st8" d="M444.8,371.6c0,0-0.1,0.3-0.4,0.7s-0.6,1.2-1.1,2c-0.6,1-1.4,2-2.1,2.9c-1,1.2-2.1,2.3-3.3,3.4
	c-1.4,1.2-2.9,2.4-4.5,3.4c-0.9,0.5-1.7,1.1-2.7,1.5c-0.9,0.5-1.9,1-2.9,1.4c-2.1,0.9-4.3,1.5-6.5,2l-1.7,0.3l-0.9,0.1l-0.4,0.1
	h-0.6c-1.1,0.1-2.1,0.2-3.2,0.2c-1.3,0-2.5,0-3.7-0.1s-2.3-0.3-3.5-0.4s-2.3-0.5-3.4-0.7s-2.2-0.6-3.2-1s-2-0.8-3-1.3
	s-1.9-0.9-2.7-1.4s-1.7-1-2.4-1.5s-1.5-1.1-2.1-1.6s-1.3-1.1-1.9-1.6s-1.1-1-1.5-1.6c-0.8-0.9-1.6-1.8-2.3-2.8
	c-0.6-0.8-1-1.5-1.2-1.9s-0.4-0.7-0.4-0.7l2.9,1.1c0.9,0.3,2,0.7,3.2,1.1s2.6,0.9,4,1.3l2.3,0.7l2.4,0.6c0.8,0.2,1.7,0.4,2.5,0.6
	s1.7,0.4,2.6,0.5s1.8,0.3,2.7,0.4s1.8,0.2,2.8,0.3l2.8,0.1c0.9,0,1.7,0,2.6,0l3.2-0.1h0.2l0.1,0.3v0.3l0,0c0.2-1-0.2-0.2-0.2-0.2
	l0.4-0.2l0.7-0.1c0.5,0,0.9-0.1,1.4-0.1c0.9-0.2,1.8-0.3,2.7-0.4s1.8-0.3,2.7-0.5c1.8-0.3,3.5-0.8,5.1-1.3s3.2-1,4.6-1.5
	s2.8-1,4-1.5s2.2-0.9,3.1-1.3L444.8,371.6z"/>
<path class="st8" d="M417.8,397.3c-9.5,11.7-25.3,15.2-37.2,9c-9.2-4.8-15-14.7-15.4-25.7"/>
<path class="st8" d="M417.8,397.3c0,0-0.1,0.3-0.3,0.8s-0.5,1.3-1,2.2c-0.6,1.1-1.4,2.2-2.2,3.2c-1,1.3-2.2,2.6-3.5,3.7
	c-0.7,0.6-1.5,1.2-2.3,1.8c-0.4,0.3-0.9,0.6-1.3,0.8c-0.5,0.3-0.9,0.6-1.4,0.8c-1,0.5-2,1-3.1,1.4c-0.5,0.2-1.1,0.4-1.7,0.6
	l-1.8,0.5c-2.5,0.6-5,1-7.5,0.9c-2.7,0-5.3-0.4-7.9-1.1l-1.9-0.7c-0.3-0.1-0.6-0.2-1-0.4l-0.9-0.4l-0.9-0.4l-0.5-0.2l-0.2-0.1
	l-0.1-0.1l-0.2-0.1l0,0l0,0l-1.4-0.9c-0.5-0.3-1.1-0.8-1.7-1.2s-1-0.9-1.5-1.3s-1-0.9-1.4-1.3c-0.5-0.4-0.9-0.9-1.3-1.4
	c-1.5-1.8-2.8-3.8-3.9-5.9c-0.5-1-0.9-2-1.2-3c-0.3-1-0.6-1.9-0.8-2.9l-0.3-1.4c-0.1-0.5-0.1-0.9-0.2-1.3c-0.3-2.1-0.2-4.2,0-6.3
	c0.1-0.8,0.3-1.6,0.5-2.4c0.1-0.5,0.2-0.8,0.2-0.8l0.3,0.8c0.2,0.5,0.5,1.3,0.9,2.2s0.9,2,1.5,3.2c0.3,0.6,0.6,1.2,1,1.8l0.6,1
	l0.6,1c0.9,1.4,1.9,2.7,3,4c1.2,1.3,2.4,2.6,3.8,3.7c0.3,0.3,0.7,0.5,1.1,0.8c0.4,0.3,0.7,0.5,1.1,0.8c0.4,0.2,0.8,0.5,1.1,0.7
	s0.6,0.4,1.1,0.6l1.5,0.8l0,0l0,0l-0.1-0.1h0.1l0.2,0.1l0.3,0.1l0.6,0.3l0.6,0.3l0.7,0.2l1.3,0.5l1.4,0.3l0.7,0.2l0.7,0.1l1.4,0.3
	l1.4,0.1c0.5,0.1,0.9,0.1,1.4,0.1c0.5,0,0.9,0.1,1.4,0.1h1.4h0.7l0.7-0.1l1.4-0.1l1.3-0.2c0.9-0.1,1.8-0.3,2.6-0.5
	c1.6-0.4,3.2-0.8,4.8-1.4c1.4-0.5,2.7-1.1,4.1-1.7c1.3-0.5,2.2-1.1,3.1-1.6l2-1.3C417.5,397.4,417.8,397.3,417.8,397.3z"/>
<path class="st8" d="M400.6,433.9c-4.3,0-19.1-0.5-32.1-11.5c-6.4-5.5-11.3-12.6-14.1-20.5"/>
<path class="st8" d="M400.6,433.9c0,0-0.2,0.1-0.7,0.3s-1.1,0.4-2,0.6c-2.4,0.6-4.8,1-7.2,1c-1.6,0-3.3,0-4.9-0.3
	c-0.9-0.1-1.8-0.2-2.7-0.4c-0.9-0.2-1.8-0.4-2.8-0.7c-0.5-0.1-0.9-0.3-1.4-0.4l-1.4-0.5l-1.4-0.5l-1.4-0.6c-0.9-0.4-1.8-0.9-2.7-1.4
	l-1.3-0.8l-1.3-0.9c-0.9-0.6-1.7-1.2-2.5-1.9l-1.2-1l-0.6-0.6l-0.5-0.5l-1-1l-1.1-1.2c-0.7-0.8-1.3-1.5-1.9-2.3
	c-1.1-1.5-2.1-3.1-2.9-4.7c-0.8-1.5-1.4-3-1.9-4.5c-0.8-2.3-1.3-4.7-1.5-7.1c-0.1-0.9,0-1.6,0-2.1s0-0.7,0-0.7s0.2,0.2,0.5,0.5
	l1.4,1.5c1.1,1.3,2.7,3,4.6,5c0.9,1,2,2,3,3.1s2.2,2.1,3.4,3.2c0.6,0.5,1.2,1.1,1.8,1.6l2,1.6l0.5,0.4l0.1,0.1l-0.1-0.1l0,0l0,0
	l0.1,0.1l0.3,0.2l1,0.8c0.7,0.5,1.4,1,2,1.5l1,0.7l1.1,0.7l1,0.7l1.1,0.6c0.7,0.4,1.4,0.9,2.1,1.3s1.4,0.8,2.1,1.2l1.1,0.6
	c0.4,0.2,0.7,0.3,1.1,0.5c0.7,0.4,1.4,0.7,2.1,1s1.4,0.6,2,0.9s1.3,0.6,1.9,0.9c1.3,0.6,2.4,1,3.5,1.5l2.8,1.1l1.9,0.8
	C400.3,433.8,400.6,433.9,400.6,433.9z"/>
<path class="st8" d="M602.8,341.9l0.3-0.2c0.3-0.2,0.7-0.4,1-0.6c1.3-0.7,2.7-1.2,4.2-1.6c2.3-0.6,4.6-0.9,7-0.9
	c2.7-0.1,5.7,0,8.8,0c3.3,0.1,6.5,0,9.7-0.4c1.7-0.2,3.3-0.5,4.9-1l0.3-0.1h0.2l0.4,0h0.2h0.2l0.8-0.1l1.5-0.1l3-0.2
	c4-0.3,8.1-0.6,12.3-0.8s8.4-0.4,12.7-0.6s8.5-0.3,12.7-0.3c2.1,0,4.2,0,6.2-0.1s4.1,0,6.1,0c8,0,15.4,0.2,21.8,0.4
	s11.7,0.5,15.4,0.6c0.9,0,1.8,0,2.5,0c0.3,0,0.7,0,1-0.1l0.3-0.1c0,0,0.1,0,0.1,0s0,0.2,0,0.1c-0.1-0.1-0.2-0.2-0.4-0.3l-0.4-0.2
	l-0.4-0.2h0.4h0.5c0.3,0,0.5,0.1,0.8,0.3c0.1,0.1,0.2,0.3,0.1,0.5c-0.1,0.1-0.1,0.2-0.2,0.3c-0.1,0.1-0.3,0.2-0.5,0.3
	c-0.3,0.2-0.7,0.3-1,0.4c-0.7,0.3-1.5,0.5-2.4,0.8c-5,1.3-10.1,2.4-15.3,3.2c-6.3,1-13.8,1.9-21.7,2.6c-2,0.2-4,0.4-6.1,0.5
	s-4.1,0.3-6.2,0.4c-4.2,0.3-8.4,0.4-12.7,0.6s-8.5,0.3-12.7,0.3s-8.3,0-12.3,0h-3h-1.4h-0.8h0.3h0.1l-0.4,0.1
	c-2.1,0.3-4.1,0.4-6.2,0.4c-3.6-0.1-7.2-0.6-10.8-1.4c-3.2-0.7-6-1.4-8.5-2c-2.1-0.5-4.3-0.8-6.4-1c-1.4-0.1-2.8-0.1-4.2,0.1
	C603.3,341.8,602.8,341.9,602.8,341.9z"/>
<path class="st8" d="M629.8,354.7l1.5-0.3c1-0.2,2.5-0.5,4.4-0.8s4.2-0.7,6.9-1l4.3-0.4c1.5-0.1,3.1-0.2,4.7-0.4s3.4-0.1,5.2-0.2
	s3.6,0,5.5-0.1c3.8,0,7.8,0.1,11.9,0.4c2.1,0.1,4.2,0.3,6.3,0.5l3.2,0.3c1.1,0.1,2.1,0.3,3.2,0.4c2.2,0.3,4.3,0.6,6.5,1
	s4.3,0.8,6.5,1.2c4.3,0.9,8.6,2,12.8,3.1l1.6,0.4l1.6,0.5l3,1c2.1,0.7,4.1,1.3,6,2c3.9,1.4,7.6,2.9,11.1,4.4s6.7,3.1,9.7,4.6
	c4.7,2.4,9.4,5.1,13.8,8c3.2,2.1,5,3.5,5,3.5l-1.5-0.4c-1-0.3-2.5-0.7-4.3-1.3l-15.1-4.5c-6.2-1.8-13.5-3.9-21.2-5.9l-5.9-1.5
	c-1-0.3-2-0.5-3.1-0.7l-1.5-0.4l-1.5-0.4c-4.1-0.9-8.3-1.9-12.4-2.8c-2.1-0.5-4.2-0.9-6.3-1.3c-1-0.2-2.1-0.4-3.1-0.6l-3.1-0.6
	c-4.1-0.8-8.2-1.5-12.2-2.1s-7.8-1.2-11.5-1.8l-10.3-1.4l-15.6-2l-4.4-0.6L629.8,354.7z"/>
<path class="st8" d="M667,376.5l1.6-0.3c1-0.1,2.5-0.4,4.5-0.5s4.3-0.4,7-0.4s5.8,0,9.2,0.1c7.7,0.4,15.3,1.5,22.7,3.4l3.1,0.8
	l3.1,0.9c1,0.3,2.1,0.6,3.1,1l1.6,0.5l0.8,0.3l0.9,0.3c2,0.8,4.1,1.5,6.1,2.3l6.3,2.8l6,3c2,1.1,3.9,2.2,5.8,3.3s3.8,2.3,5.6,3.5
	s3.6,2.4,5.3,3.7c3.4,2.5,6.5,5.1,9.4,7.7s5.5,5.1,7.7,7.6c1.1,1.2,2.2,2.4,3.2,3.6s1.9,2.3,2.8,3.4c1.7,2.1,3.1,4,4.2,5.6
	s1.9,2.9,2.5,3.8l0.8,1.4l-1.3-1l-3.5-2.8c-1.5-1.2-3.3-2.7-5.4-4.3c-1-0.8-2.2-1.7-3.4-2.6s-2.4-1.8-3.7-2.8s-2.7-2-4.1-3
	s-2.9-2-4.4-3.1c-3-2.1-6.3-4.2-9.7-6.3l-5.2-3.1l-5.4-3c-1.8-1-3.7-1.9-5.6-2.9l-5.7-2.8l-5.7-2.6l-6-2.5l-0.7-0.3l-0.7-0.3
	l-1.5-0.6c-1-0.4-1.9-0.8-2.9-1.1c-1.9-0.7-3.8-1.4-5.7-2c-3.8-1.3-7.5-2.5-11-3.5s-6.9-1.9-10.1-2.7c-6.3-1.5-11.7-2.6-15.4-3.4
	L667,376.5z"/>
<path class="st8" d="M702.9,415l1.5,0.4c1,0.3,2.4,0.6,4.2,1.2c3.6,1.1,8.6,2.8,14.6,5.1s12.8,5.3,20,8.8c1.8,0.9,3.6,1.8,5.4,2.7
	s3.7,1.8,5.5,2.8c3.7,2,7.4,4.1,11,6.1s7.2,4.1,10.7,5.9c1.8,0.9,3.5,1.7,5.3,2.4s3.5,1.4,5.3,2l2.6,0.8l2.8,0.8l2.5,0.6l2.6,0.6
	c3.4,0.7,6.7,1.2,9.7,1.5c5,0.5,10,0.8,15,0.7c1.8,0,3.3,0,4.3-0.1h1.5l-1.4,0.6c-0.9,0.4-2.3,0.9-4.1,1.5c-5,1.6-10.2,2.6-15.4,3.1
	c-3.5,0.3-7.1,0.4-10.7,0.2l-2.9-0.2l-3-0.4c-1-0.1-1.9-0.3-2.9-0.5h-0.2h-0.1l0,0h-0.1l-0.4-0.1l-0.8-0.2l-1.5-0.3
	c-2.1-0.5-4.2-1.1-6.2-1.8c-1-0.3-2-0.7-3.1-1.1s-2-0.8-3-1.3c-4-1.8-7.8-3.9-11.5-6s-7.3-4.3-10.8-6.4c-1.8-1-3.5-2.1-5.3-3.2
	l-5.1-3.1c-6.7-4.1-13-8-18.3-11.4s-9.8-6.3-12.8-8.4c-1.5-1-2.7-1.9-3.6-2.5L702.9,415z"/>
<path class="st8" d="M715.7,445.8l1.7,0.7c1.1,0.5,2.7,1.1,4.6,2s4.4,2,7.1,3.3s5.8,2.8,9.1,4.4c6.6,3.3,14.2,7.4,22.3,11.8
	c2,1.1,4,2.3,6.1,3.4s4.1,2.3,6.2,3.5l6.3,3.6l3.1,1.8c1,0.6,2.1,1.1,3,1.6l0.6,0.3l0.8,0.4l1.7,0.7c1,0.4,2,0.8,3.1,1.1
	c2.1,0.7,4.3,1.4,6.5,1.9c4.3,1,8.7,1.6,13.2,1.9c4.2,0.3,8.5,0.3,12.7,0l3-0.2l2.9-0.3c1-0.1,1.9-0.2,2.8-0.3l2.7-0.4l2.6-0.3
	c0.9-0.1,1.7-0.3,2.5-0.4l4.7-0.7c2.9-0.6,5.5-1,7.6-1.4s3.8-0.8,4.9-1l1.8-0.3l-1.6,0.9c-1,0.5-2.5,1.4-4.5,2.3s-4.4,2-7.2,3.3
	s-6,2.4-9.7,3.4l-2.8,0.8c-1,0.3-1.9,0.5-2.9,0.7l-3,0.7l-3.2,0.6c-4.5,0.8-9.2,1.3-13.8,1.4h-3.7l-3.7-0.2c-2.5-0.2-5.1-0.5-7.6-1
	c-2.6-0.5-5.1-1.1-7.6-1.9c-1.3-0.4-2.6-0.9-3.8-1.4l-1.7-0.7l-0.8-0.4l-0.3-0.1l-0.3-0.1l-0.5-0.2c-1.3-0.6-2.4-1.3-3.5-1.9
	l-3.3-1.9c-2.1-1.3-4.2-2.6-6.3-3.9s-4.1-2.6-6.1-3.9s-4-2.6-5.9-3.9c-7.7-5.1-14.7-10.1-20.7-14.5c-3-2.2-5.7-4.2-8.1-6.1
	s-4.4-3.5-6.1-4.9s-3-2.5-3.9-3.2L715.7,445.8z"/>
<path class="st8" d="M719.6,483l1.7,1.4c1.1,0.9,2.7,2.2,4.8,3.8s4.6,3.5,7.6,5.5s6.4,4.2,10.2,6.3c1.9,1.1,3.9,2.1,6,3.2
	c1.1,0.5,2.1,1,3.2,1.5l0.8,0.4l0.4,0.2l0.2,0.1c0.3,0,0.4,0.2,0.4,0.5s-0.2,0.4-0.5,0.4s-0.4-0.2-0.4-0.5c0-0.2,0.2-0.4,0.4-0.4
	h0.1h0.1l1.8,0.7c2.4,0.9,4.9,2.1,7.3,2.8l3.7,1.3c1.3,0.4,2.6,0.7,3.9,1.1c2.6,0.8,5.3,1.3,8,2c1.3,0.3,2.7,0.5,4.1,0.8
	s2.8,0.5,4.2,0.7l4.2,0.5c1.4,0.2,2.8,0.2,4.3,0.4l2.1,0.2l2.2,0.1c1.4,0,2.9,0.1,4.3,0.2c5.8,0.2,11.6-0.2,17.3-0.6
	c1.4-0.1,2.8-0.2,4.3-0.4s2.8-0.3,4.2-0.5c2.8-0.3,5.6-0.7,8.4-1.1l4.1-0.6l3.9-0.6c2.6-0.4,5.1-0.9,7.6-1.4c4.9-1,9.6-2.1,13.9-3.3
	s8.2-2.4,11.6-3.5s6.5-2.1,8.9-3c1.2-0.5,2.3-0.9,3.3-1.2l2.4-0.9l2-0.8l-1.8,1.3c-1.2,0.8-2.9,2-5.1,3.4s-5,3.1-8.3,4.8
	s-7,3.6-11.3,5.4c-4.3,1.8-8.9,3.5-13.9,5.1c-2.5,0.8-5.1,1.5-7.8,2.2c-1.3,0.4-2.7,0.7-4.1,1l-4.1,0.9c-2.8,0.6-5.6,1.1-8.5,1.6
	s-5.9,0.9-8.9,1.2c-6.1,0.7-12.3,1-18.4,0.9c-6.2-0.2-12.3-0.8-18.4-1.8c-5.9-1-11.7-2.5-17.4-4.5c-1.4-0.5-2.7-1-4.1-1.5l-4-1.7
	c-2.7-1.1-4.9-2.4-7.2-3.6c-4.4-2.4-8.6-5.1-12.6-8.1c-5.9-4.5-11.3-9.6-16-15.2c-1.7-2-2.9-3.7-3.8-4.9S719.6,483,719.6,483z"/>
<path class="st8" d="M724.7,663.9l1,0.5c0.7,0.4,1.7,0.9,2.8,1.6s2.7,1.7,4.3,2.8s3.4,2.5,5.2,4s3.8,3.3,5.8,5.3c1,1,2,2,3,3.1
	s2,2.2,3,3.4s1.9,2.4,2.9,3.6s1.9,2.5,2.8,3.8s1.8,2.7,2.6,4s1.6,2.8,2.5,4.2s1.5,2.9,2.3,4.3s1.3,2.9,2,4.4s1.2,2.8,1.8,4.4
	s1.1,3,1.5,4.4c0.9,2.9,1.7,5.7,2.3,8.4s1,5.3,1.4,7.7c0.5,3.9,0.7,7.8,0.7,11.7c0,1.4-0.1,2.5-0.2,3.3l-0.1,1.2l-0.5-1.1
	c-0.3-0.7-0.7-1.7-1.2-3l-1.9-4.6l-2.4-5.9c-1.8-4.3-3.9-9.2-6.3-14.4L758,717l-2-4l-2-4l-2.2-4c-1.5-2.7-3-5.3-4.5-7.8
	c-0.8-1.3-1.5-2.5-2.3-3.8s-1.5-2.5-2.3-3.7s-1.5-2.4-2.3-3.5l-1.1-1.7c-0.4-0.5-0.8-1.1-1.1-1.7c-0.7-1.1-1.5-2.1-2.2-3.2
	s-1.4-2-2.1-3c-2.7-3.8-5-7-6.6-9.2l-1.9-2.7L724.7,663.9z"/>
<path class="st9" d="M742.5,584.5c4.5-7.3,9.6-14.2,15.4-20.5c8-8.9,12.3-13.5,19.3-15.4c11-3,21.4,2.9,23.1,3.8
	c23.2,13.2,22.3,55.7,21.8,82.1c-0.5,27.4-1,52.3-18,75.7c-3,4.3-25,34.7-47.4,29.5c-6.9-1.6-12-6.1-15.4-10.3"/>
<path class="st8" d="M742.7,613.9l1.1,0.9c0.7,0.6,1.8,1.5,3.1,2.6s2.9,2.4,4.8,3.8s4,3,6.4,4.5c5.3,3.5,11,6.4,17,8.7
	c1.6,0.5,3.3,1.1,5,1.6l1.2,0.3l1.4,0.3c0.5,0.1,0.9,0.2,1.3,0.3s0.8,0.2,1.3,0.3c3.5,0.7,7,1,11.1,1.4c4.2,0.4,8.3,1.2,12.3,2.4
	l0.8,0.2l0.3,0.1l0.2,0.1l0.3,0.1l1.4,0.5c1,0.4,2,0.8,2.9,1.2c1.8,0.8,3.6,1.7,5.4,2.8c3.3,1.9,6.3,4.1,9.2,6.6
	c2.5,2.2,4.8,4.6,7,7.1c1.8,2.1,3.5,4.3,5,6.7c0.7,1,1.3,2,1.8,2.9l1.4,2.5c0.9,1.5,1.4,2.8,1.8,3.7l0.6,1.3l-1.1-1
	c-0.7-0.6-1.7-1.6-2.9-2.8l-2.1-1.9l-2.5-2.2c-1.8-1.6-3.8-3.3-6.1-5s-4.7-3.6-7.5-5.2c-2.8-1.8-5.7-3.4-8.8-4.7
	c-0.8-0.4-1.6-0.7-2.4-1s-1.6-0.6-2.4-0.9s-1.6-0.5-2.4-0.8l-1.4-0.4l-0.3-0.1l-0.2,0l0,0l0,0h-0.1l-0.6-0.2
	c-3.5-0.9-7.1-1.5-10.7-1.8c-4.1-0.3-8.1-1-12.1-1.9c-0.5-0.1-1-0.3-1.6-0.4s-1-0.3-1.5-0.4l-1.4-0.4l-0.3-0.1l-0.2-0.1l-0.4-0.1
	l-0.7-0.3c-1.9-0.7-3.7-1.5-5.5-2.3c-3.4-1.6-6.6-3.6-9.7-5.8c-2.7-2-5.2-4.1-7.5-6.5c-1.1-1.1-2.1-2.2-3-3.2s-1.8-2.1-2.5-3.1
	c-1.3-1.7-2.5-3.4-3.6-5.2c-0.9-1.5-1.6-2.7-2-3.5L742.7,613.9z"/>
<path class="st8" d="M738.8,640.8l0.9,0.8c0.6,0.5,1.5,1.2,2.6,2.2c2.2,1.9,5.2,4.7,8.7,8s7.6,7.3,11.9,11.5l3.3,3.2
	c1.1,1.1,2.2,2.2,3.3,3.3l6.8,6.7l6.7,6.8l6.5,6.6c4.2,4.3,8.1,8.3,11.5,11.9s6.1,6.6,8,8.8c1,1.1,1.7,2,2.2,2.6l0.8,0.9l-1.1-0.5
	c-0.7-0.3-1.8-0.8-3.1-1.4c-3.6-1.8-7.1-3.7-10.4-5.9c-2.1-1.3-4.3-2.8-6.6-4.4s-4.7-3.4-7.1-5.3c-1.2-1-2.4-2-3.6-3l-1.8-1.5
	l-1.8-1.6c-2.4-2.1-4.8-4.4-7.1-6.7l-3.5-3.5c-0.6-0.6-1.1-1.2-1.7-1.8l-1.7-1.8c-1.1-1.2-2.1-2.4-3.2-3.6s-2-2.4-3-3.6
	c-3.5-4.4-6.8-9-9.8-13.7c-2.1-3.4-4.1-6.8-5.8-10.4C739.4,642.4,738.8,640.8,738.8,640.8z"/>
<path class="st8" d="M751.6,598.5l1.5-0.4c1-0.2,2.5-0.6,4.4-1s4.2-0.8,6.9-1.2s5.7-0.7,9-0.9s6.9-0.3,10.7-0.3
	c1.9,0,3.9,0.1,5.9,0.2s4,0.3,6.1,0.5c1,0.1,2.1,0.2,3.1,0.3l3.2,0.4c1.1,0.2,2.1,0.3,3.2,0.5l3.2,0.6l3.3,0.6
	c1.1,0.2,2.2,0.5,3.2,0.7l3.3,0.8l3.2,0.9c2.2,0.6,4.3,1.2,6.4,2s4.2,1.4,6.3,2.2s4.1,1.6,6,2.5s3.9,1.8,5.8,2.7
	c3.7,1.8,7.3,3.8,10.6,5.7s6.3,4,9,5.9c4.3,3.1,8.5,6.5,12.4,10.2c1.4,1.3,2.5,2.4,3.2,3.2l1.1,1.2L881,635l-4-2
	c-3.4-1.7-8.3-4.1-14.1-6.8c-2.9-1.4-6.1-2.8-9.5-4.2s-6.9-2.9-10.7-4.3c-1.9-0.7-3.8-1.4-5.7-2.1l-5.9-2c-2-0.7-4-1.2-6-1.9
	s-4-1.2-6.1-1.8l-3-0.9l-3.1-0.8c-1-0.3-2-0.5-3.1-0.8l-3.1-0.7c-2-0.5-4-0.9-6.1-1.3s-4-0.8-6-1.2s-3.9-0.7-5.8-1s-3.8-0.6-5.6-0.9
	s-3.6-0.5-5.3-0.8s-3.4-0.5-5-0.7c-3.2-0.4-6.2-0.7-8.8-1l-6.8-0.7l-4.4-0.5L751.6,598.5z"/>
<path class="st8" d="M747.8,565.1l1.9,0.7c1.2,0.5,3,1.1,5.3,1.9s5.1,1.7,8.3,2.7s6.9,1.9,10.9,2.8s8.3,1.7,13,2.3
	c2.3,0.3,4.7,0.6,7.1,0.8l0.9,0.1h0.5h0.1l0,0h0.3l1.9,0.1l3.9,0.2c2.5,0,4.9,0.1,7.5-0.1s5.2-0.3,7.8-0.5c5.3-0.5,10.7-1.3,16.2-2
	c5.6-0.9,11.3-1.4,17-1.6c1.4,0,2.9-0.1,4.3,0s2.9,0,4.3,0.2s2.8,0.2,4.2,0.4l4.1,0.7c1.4,0.2,2.7,0.6,4,0.9l2,0.5l1.9,0.6
	c2.6,0.8,5,1.7,7.3,2.6c4.3,1.8,8.5,4,12.4,6.5c3.3,2.1,6.4,4.4,9.4,6.9c2.6,2.3,4.8,4.3,6.5,6.1c0.9,0.9,1.6,1.7,2.3,2.4l1.6,1.8
	l1.3,1.5l-1.7-1.1l-2-1.4c-0.8-0.5-1.7-1.1-2.7-1.8c-2-1.3-4.6-2.8-7.5-4.5s-6.3-3.4-10-5c-4-1.8-8-3.3-12.2-4.5
	c-2.2-0.6-4.5-1.2-6.8-1.7l-1.8-0.3l-1.8-0.3c-1.2-0.2-2.4-0.4-3.6-0.5c-5-0.6-10.1-0.7-15.1-0.4c-5.2,0.3-10.5,1-16,1.8
	s-11.2,1.5-16.8,1.8c-2.8,0.1-5.7,0.3-8.5,0.2s-5.6-0.2-8.4-0.5l-3.9-0.5l-1.9-0.2h-0.2h-0.2h-0.1l-0.5-0.1l-1-0.2
	c-1.3-0.2-2.5-0.4-3.8-0.7s-2.5-0.5-3.7-0.8c-4.5-1.1-8.9-2.5-13.2-4.1c-6.4-2.5-12.6-5.5-18.4-9.2c-2.1-1.3-3.7-2.4-4.8-3.2
	L747.8,565.1z"/>
<path class="st10" d="M16.9,1002.3c25.5-14.5,50-30.8,73.1-48.8c8.2-6.4,18.4-14.8,34.6-23.1c16.5-8.4,30.7-12.4,46.2-16.7
	c24.3-6.7,36.5-10,51.3-10.3c5.4-0.1,15.5,0.1,28.2-3.8c5.3-1.6,10.5-3.8,15.4-6.4c28.8-15.2,45.8-38.7,59-39.8
	c30-2.5,93.3,106.8,62.9,159.1C342.2,1090.9,96.4,1025.2,16.9,1002.3z"/>
<path class="st8" d="M731.1,526.6l1.7,1.3c1.1,0.9,2.7,2.1,4.8,3.6s4.7,3.3,7.7,5.2c3.3,2.1,6.8,4,10.3,5.7c4.1,2,8.4,3.6,12.8,4.8
	l3.6,0.9l3.7,0.7l3.6,0.5l4.1,0.3c1.3,0.1,2.5,0,3.8,0.1s2.6-0.1,3.9-0.2s2.6-0.3,4-0.4s2.7-0.4,4-0.6c5.4-1,10.9-2.6,16.7-4.1
	c5.9-1.6,11.8-2.8,17.8-3.6c5.9-0.8,11.8-1,17.8-0.6c5.5,0.3,11.1,1.1,16.5,2.3c4.8,1.1,9.5,2.5,14.1,4.3c3.8,1.5,7.6,3.2,11.3,5.1
	c1.6,0.8,3.1,1.7,4.5,2.5s2.6,1.5,3.7,2.3c2.2,1.3,3.9,2.6,5,3.4l1.7,1.3l-2-0.7c-1.3-0.5-3.2-1.2-5.6-2.1c-1.2-0.5-2.5-0.9-4-1.4
	s-3-1-4.8-1.5c-3.4-1.1-7.3-2.1-11.5-3.1c-4.5-1.1-9.1-1.9-13.7-2.4c-5.1-0.6-10.2-0.9-15.3-0.9c-0.6,0-1.3,0-2,0h-1h-0.5h-0.5
	l-4,0.2c-2.7,0.3-5.4,0.5-8.2,1c-5.6,0.9-11.2,2.2-16.7,3.7c-5.7,1.4-11.5,3.1-17.6,4c-1.5,0.2-3,0.4-4.6,0.6s-3.1,0.2-4.6,0.3
	s-3,0-4.6,0s-3.2-0.2-4.6-0.4l-4.1-0.6h-0.1H778h-0.1l-0.3-0.1l-0.5-0.1l-1-0.2l-2.1-0.5l-4-1.2c-1.3-0.4-2.6-0.9-3.8-1.4
	c-4.6-1.8-9.1-4.1-13.3-6.9c-3.5-2.3-6.8-4.8-9.8-7.6c-2.3-2.1-4.6-4.4-6.7-6.8c-1.8-1.9-3-3.6-3.9-4.7L731.1,526.6z"/>
<path class="st7" d="M391.5,677.4c-0.9,0.7-21.2,20.3-23.9,29.3c-0.3,0.9-0.7,1.8-1.1,2.7c-4.8,9.4-15.3,10.9-20.5,18
	c-4.3,5.7-1.3,7.2-6.4,16.7c-4.7,8.8-7.6,9.3-9,15.4c-1.5,6.9,1.6,9.1,1.3,16.7c-0.4,8.8-4.9,9.5-9,20.5
	c-6.3,16.8,1.1,23.1-6.4,33.4c-4.3,5.8-8.6,6.5-10.3,12.8c-1.5,5.8,1.5,7.8,0,14.1c-1.8,7.6-7,8-7.7,14.1c-0.3,2.8,0.5,4.3,6.4,15.4
	c7.7,14.6,8.7,16.8,7.7,19.3c-2.2,5.2-10.4,3.3-12.8,9c-1.8,4.3,2.3,6.7,2.6,15.4c0.2,5.8-1.6,6.3-2.6,14.1
	c-0.8,6.2-1.6,13.1,1.3,19.3c4.2,8.9,16.1,6.2,18,12.8c1.6,5.5-5.4,9.4-3.9,15.4c1.4,5.5,8.8,8,11.5,9c31.5,10.8,589.8,39,587.6-1.3
	c-0.1-2.8-3.1-8.5-6.4-24.4c-2.4-11.3,2.6-16.7-3.8-23.1c-11.5-11.5-5.4-28.2-12.8-38.5c-10.3-14.4-20.6-12.8-24.4-25.7
	c-2.6-8.9,1.5-12.2-2.6-19.3c-5.6-9.9-17-9.4-18-16.7c-0.8-5.6,5.7-7.4,5.1-14.1c-0.5-6-6-6.8-9-14.1c-3.1-7.6,0.7-11.7,0-19.3
	c-1.1-11-10.6-16.8-20.5-25.7c-10.1-9-20.5-20.5-28.2-46.2c-5.8-19.3-16.7-16.7-28.2-46.2c-16.6-42.4-24.7-64.7-32.1-64.2
	c-5.2,0.4-5.6,10.2-12.8,23.1c-11.5,20.7-25.8,24-53.9,43.6c-43.2,30.3-50.9,51.9-65.4,47.5c-14.7-4.6-17.2-30.4-33.3-30.9
	c-5-0.2-4.7,2.4-12.8,3.8c-16.8,3.1-21.8-7-35.9-3.8c-10,2.3-20.5,10.3-20.5,10.3s-9.3-1.3-15.4-2.6c-14.9-3.1-14.4-6.6-21.8-6.4
	c-9.5,0.2-16.9,6.1-20.5,9c-8,6.4-6.5,9.8-12.8,14.1c-8.9,6.1-23,7.3-32,1.3c-5.7-3.8,12.8-30.5,4.6-43.6
	C391.4,672.9,392.4,676.7,391.5,677.4z"/>
<path class="st11" d="M385.6,710.9c10-11.2,5.8-31.4,3.9-41.1c-2.4-11.5-4.6-10-5.1-18c-1-15.8,8-22,5.1-35.9c-1.2-6-3-5.2-6.4-14.1
	c-3.9-10.2-5.6-21.1-5.1-32.1c0.6-21.1,9.3-23.5,11.5-46.2c1.2-12.5-1.1-14.7-1.3-28.2c0,0-0.4-25.1,11.5-55.2
	c22.5-57,79.4-84.8,84.7-87.3c28.4-13.4,52.9-10.1,94.9-13c9.9-0.7,20.4-1,33.4,1.3c5.2,0.9,26.3,0,50,15.5
	c10.4,6.9,50.7,33.3,59,78.3c3.4,18.2-2.6,17.1,0,38.5c5,40.7,26.8,45.6,34.6,83.4c7,33.7-3.5,62.8-7.7,74.4
	c-2.2,6.1-10,26.5-32.1,52.6c-19.9,23.6-70.8,87.5-106.5,75.7c-18.3-6-14.8-26-44.9-41.1c-8.1-4.1-27.8-13.9-43.6-6.4
	c-6.4,3-8.3,7.1-18,10.3c-5,1.6-14,4.5-23.1,1.3c-8.5-3-10-8.8-16.7-9c-6.9-0.2-12,5.5-12.8,6.4c-7.6,8.3-2.3,16.4-7.7,24.4
	c-6.9,10.1-24,9.5-37.2,9c-11.6-0.4-24.2-0.9-33.4-10.3c-0.5-0.5-11.1-11.7-7.7-20.5C368,716.1,378,719.4,385.6,710.9z"/>
<path class="st12" d="M494.9,602.3l-1.6,3.2c-1,2.1-2.5,5.2-4.1,9.1s-3.6,8.9-5.6,14.5s-3.7,12.3-6.3,19.3
	c-1.3,3.6-2.9,7.2-4.6,10.7c-1.8,3.7-3.9,7.4-6.2,10.8c-2.4,3.7-5.3,7.1-8.5,10.1c-1.7,1.5-3.5,2.9-5,4.5c-1.5,1.6-2.8,3.5-3.9,5.4
	c-2.3,4-3.7,8.4-4.2,13c-0.3,2.2,0.1,4.5,1,6.5c0.4,0.9,1.1,1.7,2,2.2c1,0.4,2,0.6,3.1,0.6c2.4,0.1,4.9,0,7.3,0.1
	c2.5,0.1,5,0.3,7.4,0.6c1.2,0.1,2.5,0.4,3.7,0.6s2.5,0.5,3.7,0.8c2.4,0.7,4.8,1.5,7.1,2.5c1.1,0.5,2.3,0.9,3.4,1.3
	c1.1,0.3,2.2,0.6,3.4,0.7c0.6,0.1,1.2,0.1,1.7,0.1s1.2,0,1.8,0c1.2-0.1,2.3-0.2,3.5-0.5c2.3-0.5,4.6-1.2,6.9-2.1
	c2.3-0.8,4.5-1.7,6.8-2.6c4.5-1.8,9-3.7,13.3-5.5c2.2-0.9,4.3-2,6.7-2.8c1.2-0.4,2.4-0.7,3.7-0.9c0.7-0.1,1.2-0.2,1.8-0.2
	s1.3-0.1,1.9-0.1c2.4,0,4.8,0.3,7.2,0.8c2.3,0.5,4.4,0.9,6.6,1.3s4.3,0.7,6.5,1l6.4,0.9c2.1,0.3,4.2,0.5,6.1,0.5s3.9-0.1,5.2-0.9
	c0.1,0,0.2-0.1,0.2-0.2l0.1-0.1l-0.1,0.1l0.1-0.1c0,0,0,0-0.1,0.1v-0.1c0-0.1,0.1-0.2,0.1-0.3c0.2-0.4,0.3-0.8,0.4-1.3
	c0.2-0.9,0.4-1.8,0.5-2.7c0.2-1.8,0.3-3.6,0.3-5.5c-0.2-6.6-1.5-13.2-3.9-19.4c-1-2.6-2.1-5.2-3.3-7.7c-1.1-2.3-2.3-4.4-3.4-6.3
	c-1.7-2.9-3.6-5.6-5.6-8.3c-1.4-1.8-2.2-2.8-2.2-2.8l0.2-0.2c0,0,0.9,0.9,2.4,2.6c5.7,6.5,10.3,13.9,13.6,21.9
	c2.7,6.3,4.3,13.1,4.7,20c0.1,2,0,3.9-0.2,5.9c-0.1,1-0.3,2-0.5,3c-0.1,0.5-0.3,1.1-0.5,1.6c0,0.1-0.1,0.3-0.2,0.4
	c0,0.1-0.1,0.2-0.1,0.3c-0.1,0.1-0.2,0.3-0.2,0.4l-0.1,0.1l-0.2,0.2L575,710c-0.1,0.1-0.3,0.2-0.4,0.3c-1,0.6-2.2,1.1-3.4,1.2
	c-1.1,0.2-2.2,0.2-3.3,0.2c-2.2,0-4.3-0.2-6.4-0.4c-4.3-0.5-8.6-1-13-1.8c-2.2-0.4-4.5-0.9-6.7-1.3c-2.1-0.5-4.3-0.7-6.5-0.7
	c-0.5,0-1.1,0-1.6,0.1s-1.2,0.1-1.7,0.2c-1.1,0.1-2.1,0.4-3.2,0.7c-2.1,0.7-4.3,1.7-6.5,2.6c-4.4,1.9-8.9,3.6-13.5,5.4
	c-2.3,0.9-4.6,1.8-6.9,2.6c-2.4,0.9-4.8,1.5-7.3,2.1c-2.6,0.5-5.2,0.6-7.8,0.3c-1.3-0.2-2.6-0.4-3.9-0.8c-1.2-0.4-2.4-0.9-3.6-1.4
	c-2.2-1-4.5-1.8-6.8-2.5c-1.1-0.3-2.3-0.6-3.5-0.8s-2.3-0.5-3.6-0.6c-2.4-0.4-4.8-0.6-7.2-0.7c-2.4-0.1-4.8-0.1-7.3-0.2
	c-1.4,0-2.7-0.3-4-0.9c-1.2-0.7-2.2-1.7-2.9-3c-1.1-2.4-1.5-5-1.1-7.6c0.6-4.8,2.2-9.5,4.6-13.6c1.2-2.1,2.6-4,4.2-5.7
	c1.7-1.7,3.5-3,5.1-4.5c3.2-2.9,6-6.2,8.4-9.8c2.3-3.4,4.4-6.9,6.2-10.6c1.8-3.4,3.3-6.9,4.7-10.5c2.6-6.9,4.5-13.5,6.5-19.2
	s4.1-10.5,5.8-14.5s3.3-7,4.3-9.1l1.6-3.2L494.9,602.3z"/>
<path class="st13" d="M415.6,595.8c1.8-4.4,5.6-12.2,13.8-17.2c18.9-11.5,48.2,0,49.1,9.3c0.7,7.8-18.1,18.5-35.6,18.1
	C429.6,605.7,419.8,599.1,415.6,595.8z"/>
<path class="st14" d="M433.8,602.9c-6.5-4.8-6.2-13.1-5.5-17.1c0.5-2.7,2.2-5.3,4.8-7.8c5.5-5.5,17.3-6,22-1.6
	c2.1,1.7,3.6,3.9,4.5,6.5c1.6,4.5,2.8,8.2,0,13.8c-1.4,2.6-3.4,4.8-5.9,6.5C448.3,606.9,439.4,607.1,433.8,602.9z"/>
<circle cx="442" cy="589.9" r="5"/>
<path class="st13" d="M580.6,589.8c1.8-4.4,5.7-12.2,13.8-17.2c18.9-11.5,48.2,0,49.1,9.3c0.7,7.8-18.1,18.5-35.6,18.1
	C594.6,599.7,584.8,593.1,580.6,589.8z"/>
<path class="st14" d="M598.8,596.9c-6.5-4.8-6.2-13.1-5.5-17.1c0.5-2.7,2.2-5.3,4.8-7.8c5.5-5.5,17.3-6,22-1.6
	c2.1,1.7,3.6,3.9,4.5,6.5c1.6,4.5,2.8,8.2,0,13.8c-1.4,2.6-3.4,4.8-5.9,6.5C613.3,600.9,604.4,601.1,598.8,596.9z"/>
<circle cx="607" cy="583.9" r="5"/>
<path class="st8" d="M480.6,552.5c0.1-3-14.9-5.7-45-11c-24.7-4.4-47.3-8.4-51-3.3c-2.6,3.5,4.7,10.5,10.5,14.3
	C423,570.9,480.4,558.8,480.6,552.5z"/>
<path class="st8" d="M654.9,537.2c-0.7-3-15.9-1.8-46.3,0.7c-25,2-47.8,3.8-50.2,9.6c-1.6,4.1,7.2,9,13.8,11.2
	C603.9,569.6,656.3,543.4,654.9,537.2z"/>
</svg>
