<svg xmlns="http://www.w3.org/2000/svg" xmlns:xlink="http://www.w3.org/1999/xlink" width="549" height="235" viewBox="0 0 549 235"><defs><path id="5te5a" d="M766 893a10 10 0 0 1 10-10h453a10 10 0 0 1 10 10v58a10 10 0 0 1-10 10H776a10 10 0 0 1-10-10z"/><mask id="5te5c" width="2" height="2.01" x="-1" y="-1"><path fill="#fff" d="M765.7 882.7h473.6v78.6H765.7z"/><use xlink:href="#5te5a"/></mask><filter id="5te5b" width="525" height="138" x="740" y="872.7" filterUnits="userSpaceOnUse"><feOffset dy="8" in="SourceGraphic" result="FeOffset1100Out"/><feGaussianBlur in="FeOffset1100Out" result="FeGaussianBlur1101Out" stdDeviation="6.279999999999999 6.279999999999999"/></filter><mask id="5te5f" width="2" height="2.01" x="-1" y="-1"><path fill="#fff" d="M765.7 882.7h473.6v78.6H765.7z"/><use xlink:href="#5te5a"/></mask><filter id="5te5e" width="525" height="138" x="740" y="872.7" filterUnits="userSpaceOnUse"><feOffset dy="8" in="SourceGraphic" result="FeOffset1116Out"/><feGaussianBlur in="FeOffset1116Out" result="FeGaussianBlur1117Out" stdDeviation="6.279999999999999 6.279999999999999"/></filter><linearGradient id="5te5g" x1="961" x2="1044" y1="883" y2="961" gradientUnits="userSpaceOnUse"><stop offset="0" stop-color="#5b6ec0"/><stop offset="1" stop-color="#4bc4e7"/></linearGradient><clipPath id="5te5d"><use xlink:href="#5te5a"/></clipPath></defs><g><g transform="translate(-766 -805)"><g><g filter="url(#5te5b)"><use fill="none" stroke="#000" stroke-opacity=".21" stroke-width=".6" mask="url(&quot;#5te5c&quot;)" xlink:href="#5te5a"/><use fill-opacity=".21" xlink:href="#5te5a"/></g><use fill="#5b6ec0" xlink:href="#5te5a"/></g><g clip-path="url(#5te5d)"><g filter="url(#5te5e)"><use fill="none" stroke="#000" stroke-opacity=".21" stroke-width=".6" mask="url(&quot;#5te5f&quot;)" xlink:href="#5te5a"/><use fill-opacity=".21" xlink:href="#5te5a"/></g><use fill="#5b6ec0" xlink:href="#5te5a"/><use fill="url(#5te5g)" xlink:href="#5te5a"/></g><g clip-path="url(#5te5d)"/><g><g fill="#fefeff" font-family="'OpenSans-Semibold','OpenSans-Semibold'" font-size="22" font-style="none" font-weight="400"><text dominant-baseline="text-before-edge" font-family="Helvetica, Arial, sans-serif" transform="translate(854 923)"><tspan style="font-kerning:normal">ВК-орфография</tspan></text></g></g><g/></g></g></svg>