<svg xmlns="http://www.w3.org/2000/svg" xmlns:xlink="http://www.w3.org/1999/xlink" width="549" height="235" viewBox="0 0 549 235"><defs><path id="uavwa" d="M808 834a10 10 0 0 1 10-10h453a10 10 0 0 1 10 10v58a10 10 0 0 1-10 10H818a10 10 0 0 1-10-10z"/><mask id="uavwc" width="2" height="2.01" x="-1" y="-1"><path fill="#fff" d="M807.7 823.7h473.6v78.6H807.7z"/><use xlink:href="#uavwa"/></mask><filter id="uavwb" width="525" height="138" x="782" y="813.7" filterUnits="userSpaceOnUse"><feOffset dy="8" in="SourceGraphic" result="FeOffset1037Out"/><feGaussianBlur in="FeOffset1037Out" result="FeGaussianBlur1038Out" stdDeviation="6.279999999999999 6.279999999999999"/></filter><mask id="uavwf" width="2" height="2.01" x="-1" y="-1"><path fill="#fff" d="M807.7 823.7h473.6v78.6H807.7z"/><use xlink:href="#uavwa"/></mask><filter id="uavwe" width="525" height="138" x="782" y="813.7" filterUnits="userSpaceOnUse"><feOffset dy="8" in="SourceGraphic" result="FeOffset1053Out"/><feGaussianBlur in="FeOffset1053Out" result="FeGaussianBlur1054Out" stdDeviation="6.279999999999999 6.279999999999999"/></filter><linearGradient id="uavwg" x1="1003" x2="1086" y1="824" y2="902" gradientUnits="userSpaceOnUse"><stop offset="0" stop-color="#5b6ec0"/><stop offset="1" stop-color="#4bc4e7"/></linearGradient><clipPath id="uavwd"><use xlink:href="#uavwa"/></clipPath></defs><g><g transform="translate(-808 -743)"><g><g filter="url(#uavwb)"><use fill="none" stroke="#000" stroke-opacity=".21" stroke-width=".6" mask="url(&quot;#uavwc&quot;)" xlink:href="#uavwa"/><use fill-opacity=".21" xlink:href="#uavwa"/></g><use fill="#5b6ec0" xlink:href="#uavwa"/></g><g clip-path="url(#uavwd)"><g filter="url(#uavwe)"><use fill="none" stroke="#000" stroke-opacity=".21" stroke-width=".6" mask="url(&quot;#uavwf&quot;)" xlink:href="#uavwa"/><use fill-opacity=".21" xlink:href="#uavwa"/></g><use fill="#5b6ec0" xlink:href="#uavwa"/><use fill="url(#uavwg)" xlink:href="#uavwa"/></g><g clip-path="url(#uavwd)"/><g><g fill="#fefeff" font-family="'OpenSans-Semibold','OpenSans-Semibold'" font-size="22" font-style="none" font-weight="400"><text dominant-baseline="text-before-edge" font-family="Helvetica, Arial, sans-serif" transform="translate(863 863)"><tspan style="font-kerning:normal">YouTube-орфография</tspan></text></g></g><g/></g></g></svg>