<?xml version="1.0" encoding="utf-8"?>
<!-- Generator: Adobe Illustrator 19.2.0, SVG Export Plug-In . SVG Version: 6.00 Build 0)  -->
<svg version="1.1" id="Слой_1" xmlns="http://www.w3.org/2000/svg" xmlns:xlink="http://www.w3.org/1999/xlink" x="0px" y="0px"
	 viewBox="0 0 1000 1000" style="enable-background:new 0 0 1000 1000;" xml:space="preserve">
<style type="text/css">
	.st0{fill:url(#SVGID_1_);}
	.st1{opacity:0.5;fill:#FFFFFF;enable-background:new    ;}
	.st2{opacity:0.6;fill:#FFFFFF;enable-background:new    ;}
	.st3{opacity:0.7;fill:#FFFFFF;enable-background:new    ;}
	.st4{fill:#7B36FF;}
	.st5{font-family:'ProximaNova-Bold';}
	.st6{font-size:133.26px;}
	.st7{fill:#291A0F;}
	.st8{fill:#CC9D58;}
	.st9{fill:#3F1900;}
	.st10{fill:#AF7647;}
	.st11{fill:#D1D1D1;}
	.st12{fill:#3C2A1B;}
	.st13{fill:#E6B567;}
	.st14{fill:#835526;}
	.st15{fill:#FFFFFF;}
	.st16{fill:#391D0C;}
	.st17{fill:#582F11;}
	.st18{fill:#D16851;}
</style>
<title>Курс_Пушкин_2</title>
<linearGradient id="SVGID_1_" gradientUnits="userSpaceOnUse" x1="501.165" y1="1009.9745" x2="501.165" y2="7.6445">
	<stop  offset="0" style="stop-color:#8672D8"/>
	<stop  offset="1" style="stop-color:#55B5DC"/>
</linearGradient>
<rect class="st0" width="1002.3" height="1000"/>
<circle class="st1" cx="722.7" cy="255.3" r="447.3"/>
<circle class="st2" cx="722.7" cy="255.3" r="313.1"/>
<circle class="st3" cx="722.7" cy="253.5" r="197.3"/>
<text transform="matrix(1 0 0 1 589.17 283.9)" class="st4 st5 st6">ОГЭ</text>
<path class="st7" d="M217.8,873.5c-13.7,7.4-27.9,13.9-42.5,19.4c-11.6,4.4-23.3,8.1-35.3,11.3c-4.1,1.1-7,1.7-8.5,2.1
	c-68.8,16.9-111,69-121.5,81.4c-4.3,5.1-7.7,9.6-9.7,12.3c0,0,1022.1,4.6,1022.1,0c-0.1-0.1-0.2-0.2-0.3-0.2
	c-21.7-5.5-35.1-42.3-59.5-63.2c-5.7-4.9-3.4-1.5-31.6-17c-58.4-32-58.4-41-85-48.6c-25.9-7.4-29.2,0-58.3-9.7
	c-20-6.7-27.3-13.1-47.4-23.1c0,0-24.7-12.3-72.9-25.5C621.7,800.2,445.4,806.1,217.8,873.5z"/>
<path class="st8" d="M295.6,715.5c18.9-14.4,53.6,0.2,122.7,29.2c63.2,26.5,81,45.2,116.6,40.1c38-5.4,60.6-32.7,68-25.5
	c6.7,6.5-7.9,31.5-24.3,59.5c-24.2,41.4-47.4,69.5-70.5,97.2c0,0-10.3,12.3-29.2,31.6c-29.1,29.6-35.6,31.2-38.9,31.6
	c-15.5,2-27.7-11.3-53.5-37.7c-62.4-63.9-57.5-54.2-65.6-65.6C284.1,823.5,266.3,737.9,295.6,715.5z"/>
<path class="st9" d="M272,679c8.2,12.5,8.7,17.5,7,19.5c-3.2,3.8-13.5-3.7-22.3,1.4c-7,4-6.9,12.5-11.1,12.5
	c-4.4,0.1-4.5-9.2-12.5-13.9c-4.9-2.9-10.7-2.4-22.3-1.4c-12.4,1-13.7,3.1-16.7,1.4c-8.1-4.5-8.1-23.8-4.2-37.6
	c3.2-11.5,8.1-15.6,5.6-20.9c-2.9-6.2-10.8-3.4-19.5-11.2c-0.7-0.7-10.7-9.8-9.8-22.3c0.6-7.3,4.6-12.5,7-15.3
	c10.1-12.4,22.6-11.1,23.7-18.1c0.9-6-8.2-7.8-11.1-19.5c-2.1-8.4,0.5-15.8,1.4-18.1c3.5-9.6,9.4-12,13.9-18.1
	c8.7-11.7,1.8-22.5,2.8-44.6c0.4-9.2,1.9-42,22.3-58.5c13.7-11.1,26.2-6.9,33.5-19.5c6.2-10.7-1.3-16.7,4.2-27.9
	c6.6-13.5,19.6-9.2,44.6-26.5c17.2-11.8,17.1-18,29.3-20.9c13-3.1,19.4,2.5,30.7-1.4c13.2-4.5,10.7-15.4,22.3-22.3
	c17-10.1,46.2-2.9,62.7,12.5c12.7,11.9,13.8,25,22.3,25.1c9.1,0.1,10.2-14.6,23.7-19.5c16.7-6.1,36.9,8.6,40.4,11.1
	c13,9.5,14.4,18.3,30.7,27.9c2.7,1.6,15.3,7,15.3,7c4.4,2.3,11.1,6.5,13.9,13.9c5.4,14-7.3,27-1.4,34.8c5,6.6,15.2-0.8,23.7,5.6
	c13.3,10,0.3,37.4,13.9,48.8c4.8,4,8.5-0.4,16.7,4.2c5.9,3.3,13.7,10.6,13.9,19.5c0.3,8.2-6.1,10.3-5.6,18.1
	c0.5,7.6,6.7,9.7,11.2,16.7c10,15.8,4,45.5-11.2,55.7c-9.2,6.2-18.2,2.8-23.7,11.2c-3.9,5.9-1.1,10.2-4.2,16.7
	c-2.6,5.5-9.1,12-26.5,15.3"/>
<path class="st10" d="M312.8,682.2c-2.1,4.6-8.1,16.4-16.7,16.7c-2.4,0.1-5.6-0.7-22.3-16.7c-6.2-6-10.7-10.7-12.5-12.5
	c-14.9-15.4-14.8-31.9-16.2-35.1c-5.3-12.9-8.9-17.3-6.1-26.2c3.1-10.3,5.9-19.4,13.9-23.7c10.4-5.6,26.1-0.8,39,11.2L312.8,682.2z"
	/>
<path class="st11" d="M628.5,732.5c33.5-3.3,61,33,57.1,55.9c-1.5,9-8,16.2-10.9,19.4c-10,11.1-18.4,11-32.8,19.4
	c-19.5,11.5-14.7,18.1-34,30.4c-14.2,9-16.3,5.2-41.3,17c-13.8,6.6-24.7,11.7-36.5,21.9c-8.5,7.3-8.3,9.4-25.5,29.2
	c-13.1,15-27.3,31.2-30.4,29.2c-2.1-1.3,2.9-9.3,4.9-24.3c1.8-13.7-4.1-19.7,0-24.3s9.9-0.6,20.7-3.7c11.3-3.2,18.1-11.2,23.1-17
	c9.3-10.9,6.5-14.5,15.8-30.4c4.3-7.3,1.9-20.3,17.2-32.8c9.4-7.7,5-25.6,7.4-33.7c2.3-7.8,20.2,1.5,19.2-5.2
	C579.8,764.7,600.5,735.3,628.5,732.5z"/>
<path class="st12" d="M610.2,619.2c10.5,6.1,2,21.7,13.9,47.4c16.7,36,16.6,51.6,8.4,61.3c-6.8,8-7,11.9-15.3,22.3
	c-6.8,8.5-13.3,7.4-18.1,16.7c-7.1,13.8-26.3,24.7-36.2,20.9c-28.5-11-15.5-157,27.9-170C592.2,617.3,602,614.4,610.2,619.2z"/>
<path class="st13" d="M306.7,617.3c-2.8-25.6-11.1-33.3-5.6-41.8s16.9-6.3,18.1-12.5c1.5-7.4-14.3-11.7-18.1-23.7
	c-4.2-13.1,14.6-19.2,16.7-37.6c1.9-17.1-12.1-21.6-15.3-41.8c-3.2-19.7,5.8-42.6,20.9-55.7c25.2-21.9,66.4-15.8,86.4-8.4
	c5.1,1.9,10.6,4.6,19.5,5.6c18.8,2.1,30.4-5.5,41.8-8.4c27.9-7.1,56.3,13.6,68.3,22.3c39,28.4,47.3,72.7,50.2,87.8
	c1.1,5.9,1.7,20.7,2.8,50.2c0.7,18.2,1.5,40.2,1.4,69.7c-0.2,43.1-0.3,65.1-5.6,85c-2.7,10.4-3.8,11-11.2,36.2
	c-10.3,35.5-9.2,37.7-13.9,44.6c-15.9,23.2-47.7,26.8-57.1,27.9c-21.4,2.5-37.5-3.3-55.7-9.8c-5.6-2-32.3-11.6-62.7-34.8
	c-11.5-8.8-27.2-24.5-58.5-55.7l-23.7-23.7l0,0c7.8-16.4,8.4-19.5,8.4-19.5c1.9-9.6-2.6-13-5.6-27.9
	C305.6,632.6,308.4,633,306.7,617.3z"/>
<path class="st9" d="M293.2,454.5c0.2,2.4,1.5,14.4,11.1,20.9c12,8.1,28.7,1.9,37.6-7c10.8-10.8,12.7-28.3,5.6-41.8
	c-7.1-13.2-21.3-20.8-36.2-19.5"/>
<path class="st12" d="M412.3,694.4c-10.7-15.6-24.8-15.1-43.2-25.1c-19-10.3-42.2-31.4-58.5-79.4c-3.2-0.8-6.5-1.4-9.8-1.8
	c-0.1,0.2-0.2,0.4-0.3,0.7c-2.2,4.1-5,7.8-8.2,11.1c-0.6,5.9-1.5,11.8-2.7,17.7c1.8,5.5,3,11.2,3.5,17c3.8,37.4,4.3,45,7.7,72.4
	c6.8,54.5,78.8,101,103.1,87.8c8.1-4.4,10-15,13.9-36.2C421,741.5,426,714.4,412.3,694.4z"/>
<path class="st14" d="M368.7,527c2-4.5,4.9-8.7,8.4-12.2c10.3-10.2,23.3-11.6,32.8-12.7c3.6-0.4,23.3-2.3,42.6,8
	c1.4,0.7,11.1,6,10.4,8.3c-0.6,1.9-7.9,0.7-16.4-0.3c-13.9-1.6-31.7-2.9-42.3-2.3C395.6,516.5,383.4,518.8,368.7,527z"/>
<path class="st14" d="M533.9,516.3c-0.8-1.6,8.2-9.2,19.8-12.4c3.4-0.9,20.1-5.4,29,3.7c5.7,5.9,6.5,15.7,4.6,16.7
	c-1.4,0.7-3.4-3.4-8.9-6.9c-7.8-5-16.4-4.8-22.7-4.6C542.2,513.2,534.6,517.7,533.9,516.3z"/>
<path class="st15" d="M396.5,560.4c-0.9-5.8,11.7-13.8,23.3-15.8c22.6-3.9,42,15,41.3,16.6c-0.4,0.9-7.5-2.9-13,0.8
	c-0.9,0.7-1.8,1.5-2.4,2.4c-5.3,6.5-19.9,6.5-29.8,4.7C409,567.8,397.3,565.7,396.5,560.4z"/>
<path class="st16" d="M420.8,547.8c-3.8,3.9-3.8,10.1-1.8,14.4c0.3,0.7,3.2,6.7,9.3,7.5c6.4,0.8,12.5-4.5,13.8-10.5
	c0.1-0.6,1.2-5.9-2.2-10.1C435.5,543.7,425.9,542.6,420.8,547.8z"/>
<circle cx="431.1" cy="556.1" r="4.1"/>
<path class="st15" d="M535.6,554.6c0-5.7,11.5-9.6,12.7-9.9c10.1-3.4,25-2.4,27.6,4.7c1.5,4.1-1.4,9.4-4.5,12.2
	c-3.5,3.1-7.8,3.4-12.9,3.7c-2.8,0.3-5.7,0.1-8.5-0.5C544.7,563.6,535.6,559.7,535.6,554.6z"/>
<path class="st16" d="M552.2,544.4c-5,3-5.4,9-5.5,9.4s-0.2,6.7,4.5,9.9s11.1,0.9,14.4-1.7c0.7-0.6,5.7-4.5,5-9.9
	c-0.7-5.6-7-8.8-11.7-9.2C556.6,542.7,554.3,543.2,552.2,544.4z"/>
<circle cx="559.8" cy="553.7" r="4.1"/>
<path class="st17" d="M510.4,525.5l0.1,2.2c0.1,1.5,0.2,3.6,0.4,6.3c0.6,7.5,1.7,14.9,3.1,22.2c0.9,4.6,1.8,9.5,2.9,14.7
	c1.1,5.5,2.6,10.8,4.6,16c1.1,2.7,2.4,5.3,3.9,7.8c1.5,2.5,3.4,4.9,5.2,7.3c3.7,5,6.9,10.5,9.4,16.2c1.3,2.9,2.3,5.9,3,9
	c0.4,1.6,0.6,3.3,0.5,4.9c0,1.6-0.2,3.2-0.5,4.8c-0.7,3.1-1.8,6.1-3.5,8.8c-1.6,2.6-3.4,5-5.5,7.3c-1.9,2.4-4.3,4.4-6.9,5.9
	c-1.4,0.8-3.1,1.2-4.7,1.2h-0.5h-0.2l-0.5-0.1c-0.2,0-0.4-0.1-0.6-0.1c-0.2-0.1-0.5-0.1-0.7-0.2c-0.8-0.3-1.5-0.8-2.1-1.3
	c-1-1-1.9-2-2.8-3.1c-0.8-1-1.6-1.9-2.5-2.7c-0.8-0.8-1.7-1.5-2.7-2.2c-0.5-0.3-1-0.7-1.5-0.9s-0.9-0.5-1.5-0.8
	c-3.7-1.8-7.7-2.7-11.8-2.8c-3.2,0-6.3,0.7-9.2,2c-1.9,0.9-3.5,2.1-4.9,3.7c-0.5,0.5-0.8,1-1.1,1.3l-0.3,0.5l-0.3-0.2l0.3-0.5
	c0.2-0.3,0.5-0.8,1-1.4c1.3-1.7,2.9-3.2,4.8-4.3c1.3-0.8,2.8-1.4,4.2-1.9c1.8-0.5,3.6-0.8,5.4-0.9c4.4-0.3,8.8,0.5,12.9,2.3
	c0.6,0.2,1.1,0.5,1.7,0.8s1,0.6,1.6,0.9c1.1,0.7,2.2,1.5,3.2,2.3c1,0.9,1.9,1.9,2.8,2.9c0.8,1,1.6,1.9,2.5,2.7
	c0.4,0.3,0.8,0.6,1.3,0.8l0.3,0.1c0.1,0,0.2,0.1,0.4,0.1l0.5,0.1h0.3c1.1,0,2.2-0.3,3.2-0.9c2.3-1.4,4.3-3.2,5.9-5.3
	c2-2.1,3.7-4.3,5.3-6.8c1.5-2.4,2.6-5.1,3.3-7.9c0.3-1.4,0.5-2.9,0.6-4.3c0.1-1.4-0.1-2.9-0.4-4.3c-0.6-2.9-1.5-5.8-2.7-8.6
	c-2.3-5.7-5.3-11-8.8-16c-1.8-2.5-3.6-4.9-5.1-7.6c-1.5-2.6-2.9-5.3-3.9-8.1c-1.9-5.3-3.4-10.8-4.4-16.3c-1-5.3-1.8-10.2-2.6-14.8
	c-1.3-7.4-2.1-14.9-2.5-22.4c-0.2-2.7-0.2-4.8-0.3-6.3l0-2.2L510.4,525.5L510.4,525.5z"/>
<path class="st18" d="M452.7,704.2c0.3-3.1,13-1.7,30.3-7.7c8.1-2.8,15.8-6.8,22.9-11.7c0.5,0,1.4,0,2.4,0c2.6,0.2,5.2,0.7,7.8,1.4
	c2.2,0.5,4.5,0.7,6.8,0.8c3.4,0.2,6.9-0.1,10.2-0.9c0.8,0.5,2.1,1.2,3.7,2c11.5,6.5,17.3,9.8,17.8,12.6c0.9,5.1-8.1,10.6-12.6,13.4
	c-3.2,2-20.8,12.8-38.1,7.7c-3.4-1-6.6-2.6-14.2-4.5c-5.7-1.4-8.5-1.7-12.1-2.4C467.1,712.8,452.3,707.6,452.7,704.2z"/>
<path class="st11" d="M294.4,697c-4.8-1-13.8,10.3-31.6,32.8c-21.7,27.5-32.7,41.6-37.7,57.1c-5.7,17.6-1.5,20.1-8.5,35.2
	c-9.9,21.2-23.5,27.8-20.6,36.5c2.3,6.8,13,8.9,29.2,12.2c23.2,4.6,33.7,0.7,45,9.7c6.1,4.8,3.3,6.2,9.7,12.2
	c13.1,12.1,26.2,8,51,17c9.3,3.4,14.8,5.4,20.7,9.7c26.9,19.9,16.4,56.8,34,68c8.5,5.4,44.5,6.2,71-20.4c-4.6,0.6-18.3,0.6-25.4-2.7
	c-10.1-4.7-10.6-12-23.7-26.7c-7.3-8.1-15.4-15.5-24.3-21.9c-10.8-7.7-14.6-8-20.7-14.6c-8.1-8.8-10.8-18.4-12.1-23.1
	c-10.8-37.3-20.9-40.9-34-91.1C301,728.6,305.7,699.3,294.4,697z"/>
</svg>
